<svg xmlns="http://www.w3.org/2000/svg" viewBox="0 0 32 32" width="24" height="24" style="fill: rgba(254, 64, 102, 1);border-color: rgba(0,0,0,0);border-width: apx;border-style: undefined" filter="none"><path d="M21.333 2.667l6.667 6.667v18.677c-0.001 0.731-0.593 1.323-1.324 1.323h-21.352c-0.729-0.005-1.318-0.594-1.324-1.322v-24.022c0-0.731 0.593-1.323 1.324-1.323h16.009zM16 15.333c1.841 0 3.333-1.492 3.333-3.333s-1.492-3.333-3.333-3.333v0c-1.841 0-3.333 1.492-3.333 3.333s1.492 3.333 3.333 3.333v0zM10.036 22.667h11.928c-0.342-3.019-2.881-5.344-5.964-5.344s-5.622 2.325-5.961 5.316l-0.003 0.027z"></path></svg>